<svg width="126" height="40" viewBox="0 0 126 40" fill="none" xmlns="http://www.w3.org/2000/svg">
<path d="M50.9006 14.8182V17.4034H42.517V14.8182H50.9006ZM44.6129 29V13.4794C44.6129 12.5253 44.8099 11.7313 45.2038 11.0973C45.6039 10.4633 46.1394 9.98935 46.8104 9.67543C47.4813 9.3615 48.2261 9.20454 49.0447 9.20454C49.6233 9.20454 50.1373 9.25071 50.5866 9.34304C51.036 9.43537 51.3684 9.51847 51.5838 9.59233L50.919 12.1776C50.7775 12.1345 50.599 12.0914 50.3835 12.0483C50.1681 11.9991 49.928 11.9744 49.6634 11.9744C49.0417 11.9744 48.6016 12.1252 48.343 12.4268C48.0907 12.7223 47.9645 13.147 47.9645 13.701V29H44.6129ZM53.5181 29V14.8182H56.8604V29H53.5181ZM55.1985 12.8054C54.6692 12.8054 54.2137 12.63 53.832 12.2791C53.4504 11.9221 53.2596 11.4943 53.2596 10.9957C53.2596 10.491 53.4504 10.0632 53.832 9.71236C54.2137 9.35535 54.6692 9.17685 55.1985 9.17685C55.734 9.17685 56.1895 9.35535 56.565 9.71236C56.9466 10.0632 57.1374 10.491 57.1374 10.9957C57.1374 11.4943 56.9466 11.9221 56.565 12.2791C56.1895 12.63 55.734 12.8054 55.1985 12.8054ZM63.6397 20.6903V29H60.2974V14.8182H63.492V17.228H63.6582C63.9844 16.4339 64.5046 15.803 65.2186 15.3352C65.9387 14.8674 66.8282 14.6335 67.8869 14.6335C68.8656 14.6335 69.7181 14.8428 70.4444 15.2614C71.1769 15.6799 71.7432 16.2862 72.1433 17.0803C72.5495 17.8743 72.7496 18.8376 72.7434 19.9702V29H69.4011V20.4872C69.4011 19.5393 69.1549 18.7976 68.6625 18.2621C68.1762 17.7266 67.5022 17.4588 66.6404 17.4588C66.0557 17.4588 65.5356 17.5881 65.0801 17.8466C64.6307 18.099 64.2768 18.4652 64.0183 18.9453C63.7659 19.4254 63.6397 20.0071 63.6397 20.6903ZM80.2221 29.2862C79.3234 29.2862 78.514 29.1262 77.7939 28.8061C77.0798 28.4799 76.5136 27.9998 76.095 27.3658C75.6826 26.7318 75.4764 25.95 75.4764 25.0206C75.4764 24.2204 75.6241 23.5587 75.9196 23.0355C76.215 22.5123 76.6182 22.0938 77.1291 21.7798C77.64 21.4659 78.2155 21.2289 78.8556 21.0689C79.502 20.9027 80.1698 20.7827 80.8592 20.7088C81.6902 20.6226 82.3642 20.5457 82.8812 20.478C83.3983 20.4041 83.7737 20.2933 84.0076 20.1456C84.2477 19.9917 84.3677 19.7547 84.3677 19.4347V19.3793C84.3677 18.6837 84.1615 18.1451 83.7491 17.7635C83.3367 17.3819 82.7427 17.1911 81.9672 17.1911C81.1485 17.1911 80.4991 17.3696 80.019 17.7266C79.545 18.0836 79.225 18.5052 79.0588 18.9915L75.938 18.5483C76.1842 17.6866 76.5905 16.9664 77.1568 16.3878C77.7231 15.803 78.4155 15.366 79.2342 15.0767C80.0529 14.7812 80.9577 14.6335 81.9487 14.6335C82.6319 14.6335 83.3121 14.7135 83.9892 14.8736C84.6663 15.0336 85.2849 15.2983 85.845 15.6676C86.4051 16.0308 86.8545 16.5263 87.193 17.1541C87.5377 17.782 87.7101 18.5668 87.7101 19.5085V29H84.497V27.0518H84.3862C84.1831 27.4458 83.8968 27.8151 83.5275 28.1598C83.1644 28.4983 82.7058 28.7723 82.1518 28.9815C81.604 29.1847 80.9608 29.2862 80.2221 29.2862ZM81.09 26.8303C81.7609 26.8303 82.3426 26.6979 82.835 26.4332C83.3275 26.1624 83.706 25.8054 83.9707 25.3622C84.2415 24.919 84.377 24.4358 84.377 23.9126V22.2415C84.2723 22.3277 84.0938 22.4077 83.8414 22.4815C83.5952 22.5554 83.3182 22.62 83.0105 22.6754C82.7027 22.7308 82.398 22.7801 82.0964 22.8232C81.7948 22.8662 81.5332 22.9032 81.3116 22.9339C80.813 23.0017 80.3668 23.1125 79.9728 23.2663C79.5789 23.4202 79.2681 23.6357 79.0403 23.9126C78.8126 24.1835 78.6987 24.5343 78.6987 24.9652C78.6987 25.5807 78.9234 26.0455 79.3727 26.3594C79.822 26.6733 80.3945 26.8303 81.09 26.8303ZM94.4132 10.0909V29H91.0708V10.0909H94.4132Z" fill="#14181F"/>
<path d="M106.889 23.0355V14.8182H110.232V29H106.991V26.4794H106.843C106.523 27.2734 105.997 27.9228 105.264 28.4276C104.538 28.9323 103.642 29.1847 102.577 29.1847C101.648 29.1847 100.826 28.9785 100.112 28.5661C99.4044 28.1475 98.8504 27.5412 98.4503 26.7472C98.0502 25.947 97.8501 24.9806 97.8501 23.848V14.8182H101.192V23.331C101.192 24.2296 101.439 24.9437 101.931 25.473C102.424 26.0024 103.07 26.267 103.87 26.267C104.362 26.267 104.839 26.147 105.301 25.907C105.763 25.6669 106.141 25.3099 106.437 24.8359C106.738 24.3558 106.889 23.7557 106.889 23.0355ZM113.669 29V14.8182H117.011V29H113.669ZM115.349 12.8054C114.82 12.8054 114.364 12.63 113.982 12.2791C113.601 11.9221 113.41 11.4943 113.41 10.9957C113.41 10.491 113.601 10.0632 113.982 9.71236C114.364 9.35535 114.82 9.17685 115.349 9.17685C115.884 9.17685 116.34 9.35535 116.715 9.71236C117.097 10.0632 117.288 10.491 117.288 10.9957C117.288 11.4943 117.097 11.9221 116.715 12.2791C116.34 12.63 115.884 12.8054 115.349 12.8054Z" fill="#6F7C8E"/>
<g filter="url(#filter0_ii_2508_8304)">
<rect y="3" width="34" height="34" rx="8" fill="url(#paint0_linear_2508_8304)"/>
</g>
<path fill-rule="evenodd" clip-rule="evenodd" d="M13.6081 10V11.6667H12.1081V10H13.6081ZM9.197 11.1363L10.447 12.3863L9.38634 13.447L8.13634 12.197L9.197 11.1363ZM15.2197 12.3863L16.4697 11.1363L17.5303 12.197L16.2803 13.447L15.2197 12.3863ZM7 15.1081H8.66667V16.6081H7V15.1081ZM8.13634 19.4697L9.38634 18.2197L10.447 19.2803L9.197 20.5303L8.13634 19.4697Z" fill="white"/>
<path fill-rule="evenodd" clip-rule="evenodd" d="M11.4697 14.4697C11.6706 14.2688 11.9677 14.1986 12.2372 14.2885L26.2372 18.9552C26.5434 19.0573 26.75 19.3439 26.75 19.6667C26.75 19.9895 26.5434 20.2761 26.2372 20.3782L19.5929 22.5929L17.3782 29.2372C17.2762 29.5434 16.9895 29.75 16.6667 29.75C16.3439 29.75 16.0573 29.5434 15.9552 29.2372L11.2885 15.2372C11.1987 14.9677 11.2688 14.6705 11.4697 14.4697ZM13.1859 16.1858L16.6667 26.6283L18.2885 21.7628C18.3632 21.5389 18.5389 21.3631 18.7629 21.2885L23.6283 19.6667L13.1859 16.1858Z" fill="white"/>
<defs>
<filter id="filter0_ii_2508_8304" x="0" y="3" width="34" height="42" filterUnits="userSpaceOnUse" color-interpolation-filters="sRGB">
<feFlood flood-opacity="0" result="BackgroundImageFix"/>
<feBlend mode="normal" in="SourceGraphic" in2="BackgroundImageFix" result="shape"/>
<feColorMatrix in="SourceAlpha" type="matrix" values="0 0 0 0 0 0 0 0 0 0 0 0 0 0 0 0 0 0 127 0" result="hardAlpha"/>
<feOffset dy="2"/>
<feComposite in2="hardAlpha" operator="arithmetic" k2="-1" k3="1"/>
<feColorMatrix type="matrix" values="0 0 0 0 1 0 0 0 0 1 0 0 0 0 1 0 0 0 0.16 0"/>
<feBlend mode="normal" in2="shape" result="effect1_innerShadow_2508_8304"/>
<feColorMatrix in="SourceAlpha" type="matrix" values="0 0 0 0 0 0 0 0 0 0 0 0 0 0 0 0 0 0 127 0" result="hardAlpha"/>
<feOffset dy="8"/>
<feGaussianBlur stdDeviation="8"/>
<feComposite in2="hardAlpha" operator="arithmetic" k2="-1" k3="1"/>
<feColorMatrix type="matrix" values="0 0 0 0 1 0 0 0 0 1 0 0 0 0 1 0 0 0 0.2 0"/>
<feBlend mode="normal" in2="effect1_innerShadow_2508_8304" result="effect2_innerShadow_2508_8304"/>
</filter>
<linearGradient id="paint0_linear_2508_8304" x1="29" y1="37" x2="1.5" y2="8" gradientUnits="userSpaceOnUse">
<stop stop-color="#3348FF"/>
<stop offset="1" stop-color="#00A3FF"/>
</linearGradient>
</defs>
</svg>
