<svg width="40" height="40" viewBox="0 0 40 40" fill="none" xmlns="http://www.w3.org/2000/svg">
<g filter="url(#filter0_ii_118_5573)">
<rect x="1" y="1" width="38" height="38" rx="8" fill="url(#paint0_linear_118_5573)"/>
</g>
<path fill-rule="evenodd" clip-rule="evenodd" d="M16.9164 10V11.7544H15.4164V10H16.9164ZM12.2847 11.2241L13.6005 12.5398L12.5398 13.6005L11.2241 12.2847L12.2847 11.2241ZM18.6802 12.5398L19.996 11.2241L21.0566 12.2847L19.7409 13.6005L18.6802 12.5398ZM10 15.4164H11.7544V16.9164H10V15.4164ZM11.2241 19.996L12.5398 18.6802L13.6005 19.7409L12.2847 21.0566L11.2241 19.996Z" fill="white"/>
<path fill-rule="evenodd" clip-rule="evenodd" d="M14.7328 14.7328C14.9337 14.5319 15.2308 14.4618 15.5003 14.5516L30.2372 19.4639C30.5434 19.566 30.75 19.8526 30.75 20.1755C30.75 20.4983 30.5434 20.7849 30.2372 20.887L23.2245 23.2245L20.887 30.2372C20.7849 30.5434 20.4983 30.75 20.1755 30.75C19.8527 30.75 19.566 30.5434 19.464 30.2372L14.5516 15.5003C14.4618 15.2308 14.532 14.9337 14.7328 14.7328ZM16.449 16.449L20.1755 27.6283L21.9201 22.3944C21.9947 22.1704 22.1705 21.9947 22.3944 21.9201L27.6283 20.1755L16.449 16.449Z" fill="white"/>
<defs>
<filter id="filter0_ii_118_5573" x="1" y="1" width="38" height="46" filterUnits="userSpaceOnUse" color-interpolation-filters="sRGB">
<feFlood flood-opacity="0" result="BackgroundImageFix"/>
<feBlend mode="normal" in="SourceGraphic" in2="BackgroundImageFix" result="shape"/>
<feColorMatrix in="SourceAlpha" type="matrix" values="0 0 0 0 0 0 0 0 0 0 0 0 0 0 0 0 0 0 127 0" result="hardAlpha"/>
<feOffset dy="2"/>
<feComposite in2="hardAlpha" operator="arithmetic" k2="-1" k3="1"/>
<feColorMatrix type="matrix" values="0 0 0 0 1 0 0 0 0 1 0 0 0 0 1 0 0 0 0.16 0"/>
<feBlend mode="normal" in2="shape" result="effect1_innerShadow_118_5573"/>
<feColorMatrix in="SourceAlpha" type="matrix" values="0 0 0 0 0 0 0 0 0 0 0 0 0 0 0 0 0 0 127 0" result="hardAlpha"/>
<feOffset dy="8"/>
<feGaussianBlur stdDeviation="8"/>
<feComposite in2="hardAlpha" operator="arithmetic" k2="-1" k3="1"/>
<feColorMatrix type="matrix" values="0 0 0 0 1 0 0 0 0 1 0 0 0 0 1 0 0 0 0.2 0"/>
<feBlend mode="normal" in2="effect1_innerShadow_118_5573" result="effect2_innerShadow_118_5573"/>
</filter>
<linearGradient id="paint0_linear_118_5573" x1="5.5" y1="1" x2="32.35" y2="39" gradientUnits="userSpaceOnUse">
<stop stop-color="#00A3FF"/>
<stop offset="1" stop-color="#3348FF"/>
</linearGradient>
</defs>
</svg>
